<mxfile host="app.diagrams.net" modified="2023-03-27T04:20:47.814Z" agent="Mozilla/5.0 (Macintosh; Intel Mac OS X 10_15_7) AppleWebKit/605.1.15 (KHTML, like Gecko) Version/16.3 Safari/605.1.15" etag="_1dTa28kNg0oGg5wLC_F" version="21.1.1" type="device">
  <diagram name="Seite-1" id="SU8UCeqzDKl-C5yjzVX0">
    <mxGraphModel dx="1434" dy="779" grid="1" gridSize="10" guides="1" tooltips="1" connect="1" arrows="1" fold="1" page="1" pageScale="1" pageWidth="827" pageHeight="1169" math="0" shadow="0">
      <root>
        <mxCell id="0" />
        <mxCell id="1" parent="0" />
        <mxCell id="JjEjJmbV7H0_ekJr2kXi-5" style="edgeStyle=orthogonalEdgeStyle;rounded=0;orthogonalLoop=1;jettySize=auto;html=1;exitX=0.25;exitY=1;exitDx=0;exitDy=0;" edge="1" parent="1" source="JjEjJmbV7H0_ekJr2kXi-1" target="JjEjJmbV7H0_ekJr2kXi-2">
          <mxGeometry relative="1" as="geometry" />
        </mxCell>
        <mxCell id="JjEjJmbV7H0_ekJr2kXi-6" style="edgeStyle=orthogonalEdgeStyle;rounded=0;orthogonalLoop=1;jettySize=auto;html=1;exitX=0.5;exitY=1;exitDx=0;exitDy=0;" edge="1" parent="1" source="JjEjJmbV7H0_ekJr2kXi-1" target="JjEjJmbV7H0_ekJr2kXi-3">
          <mxGeometry relative="1" as="geometry" />
        </mxCell>
        <mxCell id="JjEjJmbV7H0_ekJr2kXi-7" style="edgeStyle=orthogonalEdgeStyle;rounded=0;orthogonalLoop=1;jettySize=auto;html=1;exitX=0.75;exitY=1;exitDx=0;exitDy=0;entryX=0.5;entryY=0;entryDx=0;entryDy=0;" edge="1" parent="1" source="JjEjJmbV7H0_ekJr2kXi-1" target="JjEjJmbV7H0_ekJr2kXi-4">
          <mxGeometry relative="1" as="geometry" />
        </mxCell>
        <mxCell id="JjEjJmbV7H0_ekJr2kXi-1" value="BackeryApiService" style="rounded=0;whiteSpace=wrap;html=1;" vertex="1" parent="1">
          <mxGeometry x="335" y="150" width="120" height="60" as="geometry" />
        </mxCell>
        <mxCell id="JjEjJmbV7H0_ekJr2kXi-12" style="edgeStyle=orthogonalEdgeStyle;rounded=0;orthogonalLoop=1;jettySize=auto;html=1;exitX=0.5;exitY=1;exitDx=0;exitDy=0;entryX=0;entryY=0.5;entryDx=0;entryDy=0;" edge="1" parent="1" source="JjEjJmbV7H0_ekJr2kXi-2" target="JjEjJmbV7H0_ekJr2kXi-11">
          <mxGeometry relative="1" as="geometry" />
        </mxCell>
        <mxCell id="JjEjJmbV7H0_ekJr2kXi-2" value="OrdermanagementService" style="rounded=0;whiteSpace=wrap;html=1;" vertex="1" parent="1">
          <mxGeometry x="100" y="310" width="170" height="60" as="geometry" />
        </mxCell>
        <mxCell id="JjEjJmbV7H0_ekJr2kXi-13" style="edgeStyle=orthogonalEdgeStyle;rounded=0;orthogonalLoop=1;jettySize=auto;html=1;exitX=0.5;exitY=1;exitDx=0;exitDy=0;" edge="1" parent="1" source="JjEjJmbV7H0_ekJr2kXi-3" target="JjEjJmbV7H0_ekJr2kXi-11">
          <mxGeometry relative="1" as="geometry" />
        </mxCell>
        <mxCell id="JjEjJmbV7H0_ekJr2kXi-3" value="UsermanagementService" style="rounded=0;whiteSpace=wrap;html=1;" vertex="1" parent="1">
          <mxGeometry x="310" y="310" width="170" height="60" as="geometry" />
        </mxCell>
        <mxCell id="JjEjJmbV7H0_ekJr2kXi-14" style="edgeStyle=orthogonalEdgeStyle;rounded=0;orthogonalLoop=1;jettySize=auto;html=1;exitX=0.5;exitY=1;exitDx=0;exitDy=0;entryX=1;entryY=0.5;entryDx=0;entryDy=0;" edge="1" parent="1" source="JjEjJmbV7H0_ekJr2kXi-4" target="JjEjJmbV7H0_ekJr2kXi-11">
          <mxGeometry relative="1" as="geometry" />
        </mxCell>
        <mxCell id="JjEjJmbV7H0_ekJr2kXi-4" value="ShoppingCartManagementService" style="rounded=0;whiteSpace=wrap;html=1;" vertex="1" parent="1">
          <mxGeometry x="520" y="310" width="190" height="60" as="geometry" />
        </mxCell>
        <mxCell id="JjEjJmbV7H0_ekJr2kXi-8" value="" style="shape=cylinder3;whiteSpace=wrap;html=1;boundedLbl=1;backgroundOutline=1;size=15;" vertex="1" parent="1">
          <mxGeometry x="155" y="560" width="60" height="80" as="geometry" />
        </mxCell>
        <mxCell id="JjEjJmbV7H0_ekJr2kXi-9" value="" style="shape=cylinder3;whiteSpace=wrap;html=1;boundedLbl=1;backgroundOutline=1;size=15;" vertex="1" parent="1">
          <mxGeometry x="365" y="560" width="60" height="80" as="geometry" />
        </mxCell>
        <mxCell id="JjEjJmbV7H0_ekJr2kXi-10" value="" style="shape=cylinder3;whiteSpace=wrap;html=1;boundedLbl=1;backgroundOutline=1;size=15;" vertex="1" parent="1">
          <mxGeometry x="575" y="560" width="60" height="80" as="geometry" />
        </mxCell>
        <mxCell id="JjEjJmbV7H0_ekJr2kXi-15" style="edgeStyle=orthogonalEdgeStyle;rounded=0;orthogonalLoop=1;jettySize=auto;html=1;exitX=0.25;exitY=1;exitDx=0;exitDy=0;" edge="1" parent="1" source="JjEjJmbV7H0_ekJr2kXi-11" target="JjEjJmbV7H0_ekJr2kXi-8">
          <mxGeometry relative="1" as="geometry" />
        </mxCell>
        <mxCell id="JjEjJmbV7H0_ekJr2kXi-16" style="edgeStyle=orthogonalEdgeStyle;rounded=0;orthogonalLoop=1;jettySize=auto;html=1;exitX=0.5;exitY=1;exitDx=0;exitDy=0;" edge="1" parent="1" source="JjEjJmbV7H0_ekJr2kXi-11" target="JjEjJmbV7H0_ekJr2kXi-9">
          <mxGeometry relative="1" as="geometry" />
        </mxCell>
        <mxCell id="JjEjJmbV7H0_ekJr2kXi-17" style="edgeStyle=orthogonalEdgeStyle;rounded=0;orthogonalLoop=1;jettySize=auto;html=1;exitX=0.75;exitY=1;exitDx=0;exitDy=0;" edge="1" parent="1" source="JjEjJmbV7H0_ekJr2kXi-11" target="JjEjJmbV7H0_ekJr2kXi-10">
          <mxGeometry relative="1" as="geometry" />
        </mxCell>
        <mxCell id="JjEjJmbV7H0_ekJr2kXi-11" value="BackeryDbProxyService" style="rounded=0;whiteSpace=wrap;html=1;" vertex="1" parent="1">
          <mxGeometry x="310" y="440" width="170" height="60" as="geometry" />
        </mxCell>
      </root>
    </mxGraphModel>
  </diagram>
</mxfile>
